<?xml version="1.0" encoding="utf-8"?>
<!-- Generator: Adobe Illustrator 24.2.3, SVG Export Plug-In . SVG Version: 6.00 Build 0)  -->
<svg version="1.1" id="Layer_1" xmlns="http://www.w3.org/2000/svg" xmlns:xlink="http://www.w3.org/1999/xlink" x="0px" y="0px"
	 viewBox="0 0 238.5 238.5" style="enable-background:new 0 0 238.5 238.5;" xml:space="preserve">
<style type="text/css">
	.st0{clip-path:url(#SVGID_2_);}
	.st1{clip-path:url(#SVGID_4_);}
	.st2{font-family:'Calibri';}
	.st3{font-size:72px;}
	.st4{clip-path:url(#SVGID_6_);}
	.st5{clip-path:url(#SVGID_8_);}
	.st6{fill-rule:evenodd;clip-rule:evenodd;fill:#4086F4;}
	.st7{fill-rule:evenodd;clip-rule:evenodd;fill:#EB4132;}
	.st8{clip-path:url(#SVGID_10_);}
	.st9{clip-path:url(#SVGID_12_);}
	.st10{clip-path:url(#SVGID_14_);}
	.st11{clip-path:url(#SVGID_16_);}
	.st12{fill-rule:evenodd;clip-rule:evenodd;fill:#31AA52;}
	.st13{fill-rule:evenodd;clip-rule:evenodd;fill:#FBBD00;}
	.st14{clip-path:url(#SVGID_18_);}
	.st15{clip-path:url(#SVGID_20_);}
	.st16{fill:#646464;}
	.st17{clip-path:url(#SVGID_22_);}
	.st18{clip-path:url(#SVGID_24_);}
	.st19{clip-path:url(#SVGID_26_);}
	.st20{clip-path:url(#SVGID_28_);}
	.st21{font-size:11.04px;}
</style>
<g>
	<defs>
		<rect id="SVGID_1_" x="8.9" y="8.8" width="110.4" height="107.4"/>
	</defs>
	<clipPath id="SVGID_2_">
		<use xlink:href="#SVGID_1_"  style="overflow:visible;"/>
	</clipPath>
	<g class="st0">
		<defs>
			<rect id="SVGID_3_" x="8.9" y="8.8" width="110.4" height="107.4"/>
		</defs>
		<clipPath id="SVGID_4_">
			<use xlink:href="#SVGID_3_"  style="overflow:visible;"/>
		</clipPath>
		<g class="st1">
			<text transform="matrix(1 0 0 1 62.4986 77.3686)" class="st2 st3"> </text>
		</g>
	</g>
</g>
<g>
	<defs>
		<rect id="SVGID_5_" x="119.3" y="8.8" width="110.4" height="107.4"/>
	</defs>
	<clipPath id="SVGID_6_">
		<use xlink:href="#SVGID_5_"  style="overflow:visible;"/>
	</clipPath>
	<g class="st4">
		<defs>
			<rect id="SVGID_7_" x="119.3" y="8.8" width="110.4" height="107.4"/>
		</defs>
		<clipPath id="SVGID_8_">
			<use xlink:href="#SVGID_7_"  style="overflow:visible;"/>
		</clipPath>
		<g class="st5">
			<text transform="matrix(1 0 0 1 175.9185 77.3686)" class="st2 st3"> </text>
		</g>
	</g>
</g>
<rect x="2.8" y="2.8" class="st6" width="6" height="6"/>
<rect x="2.8" y="2.8" class="st6" width="6" height="6"/>
<rect x="8.9" y="2.8" class="st6" width="110.4" height="6"/>
<rect x="119.3" y="2.8" class="st7" width="6" height="6"/>
<rect x="125.3" y="2.8" class="st7" width="104.4" height="6"/>
<rect x="229.7" y="2.8" class="st7" width="6" height="6"/>
<rect x="229.7" y="2.8" class="st7" width="6" height="6"/>
<rect x="2.8" y="8.8" class="st6" width="6" height="107.4"/>
<rect x="229.7" y="8.8" class="st7" width="6" height="107.4"/>
<g>
	<defs>
		<rect id="SVGID_9_" x="8.9" y="116.3" width="110.4" height="113.4"/>
	</defs>
	<clipPath id="SVGID_10_">
		<use xlink:href="#SVGID_9_"  style="overflow:visible;"/>
	</clipPath>
	<g class="st8">
		<defs>
			<rect id="SVGID_11_" x="8.9" y="116.3" width="110.4" height="113.4"/>
		</defs>
		<clipPath id="SVGID_12_">
			<use xlink:href="#SVGID_11_"  style="overflow:visible;"/>
		</clipPath>
		<g class="st9">
			<text transform="matrix(1 0 0 1 62.4986 184.7983)" class="st2 st3"> </text>
		</g>
	</g>
</g>
<g>
	<defs>
		<rect id="SVGID_13_" x="119.3" y="116.3" width="110.4" height="113.4"/>
	</defs>
	<clipPath id="SVGID_14_">
		<use xlink:href="#SVGID_13_"  style="overflow:visible;"/>
	</clipPath>
	<g class="st10">
		<defs>
			<rect id="SVGID_15_" x="119.3" y="116.3" width="110.4" height="113.4"/>
		</defs>
		<clipPath id="SVGID_16_">
			<use xlink:href="#SVGID_15_"  style="overflow:visible;"/>
		</clipPath>
		<g class="st11">
			<text transform="matrix(1 0 0 1 175.9185 184.7983)" class="st2 st3"> </text>
		</g>
	</g>
</g>
<rect x="2.8" y="116.3" class="st12" width="6" height="113.4"/>
<rect x="2.8" y="229.7" class="st12" width="6" height="6"/>
<rect x="2.8" y="229.7" class="st12" width="6" height="6"/>
<rect x="8.9" y="229.7" class="st12" width="110.4" height="6"/>
<rect x="118.5" y="229.7" class="st13" width="6" height="6"/>
<rect x="124.5" y="229.7" class="st13" width="105.1" height="6"/>
<rect x="229.7" y="116.3" class="st13" width="6" height="113.4"/>
<rect x="229.7" y="229.7" class="st13" width="6" height="6"/>
<rect x="229.7" y="229.7" class="st13" width="6" height="6"/>
<g>
	<defs>
		<rect id="SVGID_17_" x="3.3" y="23.3" width="230.3" height="193.1"/>
	</defs>
	<clipPath id="SVGID_18_">
		<use xlink:href="#SVGID_17_"  style="overflow:visible;"/>
	</clipPath>
	<g class="st14">
		<defs>
			<rect id="SVGID_19_" x="3.3" y="23.3" width="230.3" height="193.1"/>
		</defs>
		<clipPath id="SVGID_20_">
			<use xlink:href="#SVGID_19_"  style="overflow:visible;"/>
		</clipPath>
		<g class="st15">
			<path class="st16" d="M48.6,59.6c0,2.3-0.4,4.3-1.1,6.2c-0.8,1.8-1.8,3.4-3.2,4.7c-1.4,1.3-3.1,2.3-5.1,3c-2,0.7-4.4,1.1-7.3,1.1
				h-5.2v16.4c0,0.2-0.1,0.4-0.2,0.5s-0.3,0.3-0.5,0.3c-0.2,0.1-0.5,0.2-0.9,0.2c-0.4,0.1-0.9,0.1-1.5,0.1c-0.6,0-1.1,0-1.5-0.1
				c-0.4-0.1-0.7-0.1-0.9-0.2c-0.2-0.1-0.4-0.2-0.5-0.3c-0.1-0.1-0.1-0.3-0.1-0.5v-42c0-0.9,0.2-1.6,0.7-2c0.5-0.4,1-0.6,1.7-0.6
				h9.7c1,0,1.9,0,2.8,0.1c0.9,0.1,2,0.3,3.2,0.5c1.2,0.3,2.5,0.8,3.8,1.5c1.3,0.7,2.4,1.6,3.3,2.7c0.9,1.1,1.6,2.3,2.1,3.7
				C48.4,56.3,48.6,57.9,48.6,59.6z M42.3,60.1c0-1.9-0.3-3.4-1-4.6c-0.7-1.2-1.5-2.2-2.6-2.8c-1-0.6-2.1-1-3.2-1.2
				c-1.1-0.2-2.2-0.2-3.2-0.2h-5.6v18.2h5.4c1.8,0,3.3-0.2,4.6-0.7c1.2-0.5,2.2-1.1,3-2c0.8-0.8,1.4-1.8,1.9-3
				C42,62.7,42.3,61.5,42.3,60.1z"/>
			<path class="st16" d="M71.6,91.8l-4.2,11.6c-0.1,0.4-0.5,0.7-1.1,0.9c-0.6,0.2-1.4,0.3-2.6,0.3c-0.6,0-1.1,0-1.5-0.1
				c-0.4-0.1-0.7-0.2-0.9-0.3c-0.2-0.1-0.3-0.3-0.3-0.6c0-0.2,0-0.5,0.2-0.8l4.4-11c-0.2-0.1-0.4-0.2-0.6-0.5
				c-0.2-0.2-0.3-0.4-0.4-0.7L53.3,60.4c-0.2-0.5-0.3-0.9-0.3-1.2s0.1-0.5,0.3-0.7c0.2-0.2,0.5-0.3,0.9-0.3c0.4-0.1,1-0.1,1.7-0.1
				s1.3,0,1.7,0.1c0.4,0,0.7,0.1,0.9,0.2c0.2,0.1,0.4,0.2,0.5,0.4s0.2,0.4,0.3,0.7l9,25.4h0.1l8.7-25.5c0.1-0.4,0.3-0.7,0.5-0.9
				c0.2-0.1,0.5-0.2,0.9-0.3c0.4-0.1,1-0.1,1.7-0.1c0.7,0,1.2,0,1.6,0.1c0.4,0.1,0.7,0.2,0.9,0.3c0.2,0.2,0.3,0.4,0.3,0.7
				s-0.1,0.6-0.2,1.1L71.6,91.8z"/>
			<path class="st16" d="M106.2,88.6c0,0.7,0,1.2-0.1,1.6c-0.1,0.4-0.2,0.7-0.4,0.9c-0.2,0.2-0.5,0.4-0.8,0.5
				c-0.4,0.2-0.8,0.3-1.3,0.4c-0.5,0.1-1,0.2-1.5,0.3c-0.5,0.1-1.1,0.1-1.6,0.1c-1.6,0-3-0.2-4.2-0.7c-1.2-0.4-2.1-1.1-2.9-2
				c-0.8-0.9-1.3-2-1.6-3.3c-0.3-1.3-0.5-2.9-0.5-4.8V63.2h-4.4c-0.4,0-0.6-0.2-0.8-0.6c-0.2-0.4-0.3-1-0.3-1.8c0-0.4,0-0.8,0.1-1.1
				c0.1-0.3,0.1-0.6,0.2-0.8c0.1-0.2,0.2-0.3,0.4-0.4c0.2-0.1,0.3-0.1,0.5-0.1h4.4v-7.5c0-0.2,0-0.3,0.1-0.5
				c0.1-0.1,0.2-0.3,0.5-0.4c0.2-0.1,0.5-0.2,0.9-0.2c0.4,0,0.8-0.1,1.4-0.1c0.6,0,1.1,0,1.4,0.1c0.4,0,0.7,0.1,0.9,0.2
				s0.4,0.2,0.5,0.4c0.1,0.1,0.1,0.3,0.1,0.5v7.5h8.1c0.2,0,0.4,0,0.5,0.1c0.1,0.1,0.3,0.2,0.4,0.4c0.1,0.2,0.2,0.5,0.2,0.8
				c0,0.3,0.1,0.7,0.1,1.1c0,0.8-0.1,1.5-0.3,1.8c-0.2,0.4-0.5,0.6-0.8,0.6H97v17.6c0,2.2,0.3,3.8,1,4.9c0.6,1.1,1.8,1.7,3.5,1.7
				c0.5,0,1-0.1,1.4-0.2s0.8-0.2,1.1-0.3c0.3-0.1,0.6-0.2,0.8-0.3c0.2-0.1,0.4-0.2,0.6-0.2c0.1,0,0.2,0,0.3,0.1
				c0.1,0.1,0.2,0.2,0.2,0.3c0.1,0.2,0.1,0.4,0.2,0.7C106.2,87.8,106.2,88.1,106.2,88.6z"/>
			<path class="st16" d="M141.1,90.9c0,0.2,0,0.3-0.1,0.5c-0.1,0.1-0.2,0.2-0.5,0.3s-0.5,0.2-0.9,0.2c-0.4,0-0.8,0.1-1.4,0.1
				c-0.6,0-1.1,0-1.4-0.1c-0.4,0-0.7-0.1-0.9-0.2s-0.4-0.2-0.5-0.3c-0.1-0.1-0.1-0.3-0.1-0.5V72.4c0-1.8-0.1-3.3-0.4-4.4
				c-0.3-1.1-0.7-2.1-1.2-2.8c-0.5-0.8-1.2-1.4-2.1-1.8s-1.8-0.6-3-0.6c-1.5,0-2.9,0.5-4.4,1.5c-1.5,1-3,2.5-4.6,4.5v22.1
				c0,0.2,0,0.3-0.1,0.5c-0.1,0.1-0.2,0.2-0.5,0.3s-0.5,0.2-0.9,0.2c-0.4,0-0.9,0.1-1.4,0.1c-0.6,0-1,0-1.4-0.1
				c-0.4,0-0.7-0.1-0.9-0.2c-0.2-0.1-0.4-0.2-0.5-0.3c-0.1-0.1-0.1-0.3-0.1-0.5v-47c0-0.2,0-0.4,0.1-0.5c0.1-0.1,0.2-0.3,0.5-0.4
				c0.2-0.1,0.5-0.2,0.9-0.2c0.4,0,0.8-0.1,1.4-0.1c0.6,0,1.1,0,1.4,0.1c0.4,0,0.7,0.1,0.9,0.2c0.2,0.1,0.4,0.2,0.5,0.4
				s0.1,0.3,0.1,0.5v18.9c1.7-1.8,3.3-3.1,5-3.9c1.7-0.9,3.4-1.3,5.1-1.3c2.1,0,3.9,0.4,5.3,1.1c1.4,0.7,2.6,1.7,3.5,2.9
				s1.5,2.6,1.9,4.2c0.4,1.6,0.6,3.5,0.6,5.8V90.9z"/>
			<path class="st16" d="M181.2,74.7c0,2.6-0.3,5-1,7.1c-0.7,2.2-1.7,4-3,5.6c-1.3,1.6-3,2.8-5.1,3.7s-4.4,1.3-7,1.3
				c-2.6,0-4.9-0.4-6.8-1.2s-3.5-1.9-4.8-3.4s-2.3-3.3-2.9-5.4s-0.9-4.5-0.9-7.2c0-2.6,0.3-5,1-7.1c0.7-2.2,1.7-4,3-5.6
				c1.3-1.6,3-2.8,5-3.7c2-0.9,4.4-1.3,7.1-1.3c2.6,0,4.9,0.4,6.8,1.2s3.5,1.9,4.8,3.4s2.3,3.3,2.9,5.4S181.2,72.1,181.2,74.7z
				 M175.1,75.1c0-1.7-0.2-3.3-0.5-4.9c-0.3-1.5-0.8-2.9-1.6-4c-0.7-1.1-1.7-2.1-3-2.7c-1.3-0.7-2.8-1-4.7-1c-1.7,0-3.2,0.3-4.5,0.9
				c-1.2,0.6-2.3,1.5-3.1,2.6c-0.8,1.1-1.4,2.4-1.8,4c-0.4,1.5-0.6,3.2-0.6,5c0,1.7,0.2,3.4,0.5,4.9c0.3,1.5,0.9,2.9,1.6,4
				c0.7,1.1,1.7,2,3,2.7s2.8,1,4.7,1c1.7,0,3.2-0.3,4.4-0.9c1.3-0.6,2.3-1.5,3.1-2.6c0.8-1.1,1.4-2.4,1.8-3.9
				C175,78.6,175.1,76.9,175.1,75.1z"/>
			<path class="st16" d="M216.9,90.9c0,0.2,0,0.3-0.1,0.5c-0.1,0.1-0.2,0.2-0.5,0.3s-0.5,0.2-0.9,0.2c-0.4,0-0.8,0.1-1.4,0.1
				c-0.6,0-1.1,0-1.4-0.1c-0.4,0-0.7-0.1-0.9-0.2s-0.4-0.2-0.5-0.3c-0.1-0.1-0.1-0.3-0.1-0.5V72.4c0-1.8-0.1-3.3-0.4-4.4
				c-0.3-1.1-0.7-2.1-1.2-2.8c-0.5-0.8-1.2-1.4-2.1-1.8s-1.8-0.6-3-0.6c-1.5,0-2.9,0.5-4.4,1.5c-1.5,1-3,2.5-4.6,4.5v22.1
				c0,0.2,0,0.3-0.1,0.5c-0.1,0.1-0.2,0.2-0.5,0.3s-0.5,0.2-0.9,0.2c-0.4,0-0.9,0.1-1.4,0.1c-0.6,0-1,0-1.4-0.1
				c-0.4,0-0.7-0.1-0.9-0.2s-0.4-0.2-0.5-0.3c-0.1-0.1-0.1-0.3-0.1-0.5V59.2c0-0.2,0-0.3,0.1-0.5c0.1-0.1,0.2-0.2,0.4-0.4
				s0.5-0.2,0.8-0.2s0.8-0.1,1.3-0.1c0.5,0,0.9,0,1.3,0.1s0.6,0.1,0.8,0.2s0.3,0.2,0.4,0.4c0.1,0.1,0.1,0.3,0.1,0.5v4.2
				c1.8-2,3.6-3.5,5.3-4.4c1.8-0.9,3.6-1.4,5.4-1.4c2.1,0,3.9,0.4,5.3,1.1c1.4,0.7,2.6,1.7,3.5,2.9s1.5,2.6,1.9,4.2
				c0.4,1.6,0.6,3.5,0.6,5.8V90.9z"/>
		</g>
	</g>
	<g class="st14">
		<defs>
			<rect id="SVGID_21_" x="3.3" y="23.3" width="230.3" height="193.1"/>
		</defs>
		<clipPath id="SVGID_22_">
			<use xlink:href="#SVGID_21_"  style="overflow:visible;"/>
		</clipPath>
		<g class="st17">
			<text transform="matrix(1 0 0 1 222.2388 91.7685)" class="st16 st2 st3"> </text>
		</g>
	</g>
	<g class="st14">
		<defs>
			<rect id="SVGID_23_" x="3.3" y="23.3" width="230.3" height="193.1"/>
		</defs>
		<clipPath id="SVGID_24_">
			<use xlink:href="#SVGID_23_"  style="overflow:visible;"/>
		</clipPath>
		<g class="st18">
			<path d="M59.3,192.5c0.2,0.5,0.3,0.9,0.3,1.2c0,0.3-0.1,0.6-0.3,0.7c-0.2,0.2-0.5,0.3-0.9,0.3c-0.4,0-1,0.1-1.7,0.1
				c-0.7,0-1.3,0-1.7-0.1c-0.4,0-0.8-0.1-1-0.2c-0.2-0.1-0.4-0.2-0.5-0.3s-0.2-0.3-0.3-0.5l-3.9-11.1H30.3l-3.7,10.9
				c-0.1,0.2-0.2,0.4-0.3,0.5c-0.1,0.2-0.3,0.3-0.5,0.4c-0.2,0.1-0.5,0.2-0.9,0.2c-0.4,0-0.9,0.1-1.6,0.1c-0.7,0-1.2,0-1.7-0.1
				c-0.4-0.1-0.7-0.2-0.9-0.3c-0.2-0.2-0.3-0.4-0.2-0.7c0-0.3,0.1-0.7,0.3-1.2L36,150.2c0.1-0.3,0.2-0.5,0.4-0.6
				c0.2-0.2,0.4-0.3,0.7-0.4c0.3-0.1,0.7-0.2,1.1-0.2s1-0.1,1.7-0.1c0.8,0,1.4,0,1.9,0.1s0.9,0.1,1.2,0.2c0.3,0.1,0.5,0.2,0.7,0.4
				c0.2,0.2,0.3,0.4,0.4,0.7L59.3,192.5z M39.7,155.2L39.7,155.2l-7.9,22.7h15.8L39.7,155.2z"/>
			<path d="M106.2,181.9c0,2.1-0.4,4-1.2,5.7c-0.8,1.7-1.9,3.1-3.3,4.2c-1.4,1.2-3,2-4.9,2.6c-1.9,0.6-3.9,0.9-6.1,0.9
				c-1.5,0-2.9-0.1-4.2-0.4c-1.3-0.3-2.5-0.6-3.5-0.9c-1-0.4-1.9-0.8-2.6-1.2c-0.7-0.4-1.2-0.7-1.4-1c-0.3-0.3-0.5-0.6-0.6-1.1
				c-0.1-0.4-0.2-1-0.2-1.7c0-0.5,0-0.9,0.1-1.3c0-0.3,0.1-0.6,0.2-0.8c0.1-0.2,0.2-0.4,0.4-0.4c0.1-0.1,0.3-0.1,0.5-0.1
				c0.3,0,0.8,0.2,1.4,0.6c0.6,0.4,1.4,0.8,2.3,1.3c0.9,0.5,2.1,0.9,3.4,1.3c1.3,0.4,2.9,0.6,4.6,0.6c1.3,0,2.5-0.2,3.6-0.5
				s2-0.8,2.8-1.5c0.8-0.6,1.4-1.4,1.8-2.4c0.4-0.9,0.6-2,0.6-3.2c0-1.3-0.3-2.4-0.9-3.3c-0.6-0.9-1.4-1.7-2.3-2.4
				c-1-0.7-2.1-1.3-3.3-1.9c-1.2-0.6-2.5-1.2-3.8-1.8c-1.3-0.6-2.5-1.3-3.8-2c-1.2-0.7-2.3-1.6-3.3-2.6c-1-1-1.7-2.1-2.3-3.5
				c-0.6-1.3-0.9-2.9-0.9-4.8c0-1.9,0.3-3.6,1-5.1c0.7-1.5,1.7-2.7,2.9-3.7c1.2-1,2.7-1.8,4.4-2.3c1.7-0.5,3.5-0.8,5.5-0.8
				c1,0,2,0.1,3,0.3s2,0.4,2.9,0.7c0.9,0.3,1.7,0.6,2.4,1c0.7,0.4,1.2,0.7,1.4,0.9c0.2,0.2,0.4,0.4,0.4,0.5c0.1,0.1,0.1,0.3,0.2,0.5
				c0,0.2,0.1,0.4,0.1,0.7c0,0.3,0,0.6,0,1.1c0,0.4,0,0.8-0.1,1.1c0,0.3-0.1,0.6-0.2,0.8c-0.1,0.2-0.2,0.4-0.3,0.5
				c-0.1,0.1-0.3,0.2-0.4,0.2c-0.3,0-0.7-0.2-1.2-0.5c-0.6-0.3-1.2-0.7-2-1.1c-0.8-0.4-1.7-0.8-2.8-1.1c-1.1-0.3-2.3-0.5-3.7-0.5
				c-1.3,0-2.4,0.2-3.3,0.5c-0.9,0.3-1.7,0.8-2.3,1.4c-0.6,0.6-1.1,1.2-1.4,2c-0.3,0.8-0.5,1.6-0.5,2.5c0,1.3,0.3,2.4,0.9,3.3
				c0.6,0.9,1.4,1.7,2.3,2.4c1,0.7,2.1,1.3,3.3,1.9c1.2,0.6,2.5,1.2,3.8,1.8c1.3,0.6,2.6,1.3,3.8,2c1.2,0.7,2.3,1.6,3.3,2.5
				c1,1,1.8,2.1,2.4,3.4C105.9,178.5,106.2,180.1,106.2,181.9z"/>
			<path d="M163.8,192.5c0.2,0.5,0.3,0.9,0.3,1.2s-0.1,0.6-0.3,0.7c-0.2,0.2-0.5,0.3-0.9,0.3c-0.4,0-1,0.1-1.7,0.1s-1.3,0-1.7-0.1
				s-0.8-0.1-1-0.2s-0.4-0.2-0.5-0.3s-0.2-0.3-0.3-0.5l-3.9-11.1h-18.9l-3.7,10.9c-0.1,0.2-0.2,0.4-0.3,0.5
				c-0.1,0.2-0.3,0.3-0.5,0.4s-0.5,0.2-0.9,0.2c-0.4,0-0.9,0.1-1.6,0.1c-0.7,0-1.2,0-1.7-0.1c-0.4-0.1-0.7-0.2-0.9-0.3
				c-0.2-0.2-0.3-0.4-0.2-0.7s0.1-0.7,0.3-1.2l15.3-42.3c0.1-0.3,0.2-0.5,0.4-0.6c0.2-0.2,0.4-0.3,0.7-0.4c0.3-0.1,0.7-0.2,1.1-0.2
				s1-0.1,1.7-0.1c0.8,0,1.4,0,1.9,0.1s0.9,0.1,1.2,0.2c0.3,0.1,0.5,0.2,0.7,0.4s0.3,0.4,0.4,0.7L163.8,192.5z M144.3,155.2
				L144.3,155.2l-7.9,22.7h15.8L144.3,155.2z"/>
		</g>
	</g>
	<g class="st14">
		<defs>
			<rect id="SVGID_25_" x="3.3" y="23.3" width="230.3" height="193.1"/>
		</defs>
		<clipPath id="SVGID_26_">
			<use xlink:href="#SVGID_25_"  style="overflow:visible;"/>
		</clipPath>
		<g class="st19">
			<text transform="matrix(1 0 0 1 180.5982 194.6386)" class="st2 st3">P</text>
		</g>
	</g>
	<g class="st14">
		<defs>
			<rect id="SVGID_27_" x="3.3" y="23.3" width="230.3" height="193.1"/>
		</defs>
		<clipPath id="SVGID_28_">
			<use xlink:href="#SVGID_27_"  style="overflow:visible;"/>
		</clipPath>
		<g class="st20">
			<text transform="matrix(1 0 0 1 217.7984 194.6386)" class="st2 st21"> </text>
		</g>
	</g>
</g>
</svg>
